<mxfile host="app.diagrams.net" agent="Mozilla/5.0 (Windows NT 10.0; Win64; x64) AppleWebKit/537.36 (KHTML, like Gecko) Chrome/130.0.0.0 Safari/537.36" version="24.8.3">
  <diagram name="Página-1" id="9vREBXogpgw-cOhk3eHp">
    <mxGraphModel dx="4599" dy="2729" grid="1" gridSize="10" guides="1" tooltips="1" connect="1" arrows="1" fold="1" page="1" pageScale="1" pageWidth="827" pageHeight="1169" math="0" shadow="0">
      <root>
        <mxCell id="0" />
        <mxCell id="1" parent="0" />
        <mxCell id="1xZOdAHlnj8blG5HcDeI-1" value="" style="rounded=0;whiteSpace=wrap;html=1;" vertex="1" parent="1">
          <mxGeometry x="-310" y="180" width="630" height="60" as="geometry" />
        </mxCell>
        <mxCell id="1xZOdAHlnj8blG5HcDeI-4" value="&lt;font face=&quot;Verdana&quot; style=&quot;font-size: 24px;&quot;&gt;Aluno&lt;/font&gt;" style="text;html=1;align=center;verticalAlign=middle;whiteSpace=wrap;rounded=0;" vertex="1" parent="1">
          <mxGeometry x="-300" y="150" width="60" height="30" as="geometry" />
        </mxCell>
        <mxCell id="1xZOdAHlnj8blG5HcDeI-151" style="edgeStyle=orthogonalEdgeStyle;rounded=0;orthogonalLoop=1;jettySize=auto;html=1;exitX=0.25;exitY=1;exitDx=0;exitDy=0;" edge="1" parent="1" source="1xZOdAHlnj8blG5HcDeI-5" target="1xZOdAHlnj8blG5HcDeI-147">
          <mxGeometry relative="1" as="geometry" />
        </mxCell>
        <mxCell id="1xZOdAHlnj8blG5HcDeI-5" value="&lt;font face=&quot;Verdana&quot; style=&quot;font-size: 24px;&quot;&gt;&lt;u&gt;e-mail&lt;/u&gt;&lt;/font&gt;" style="text;html=1;align=center;verticalAlign=middle;whiteSpace=wrap;rounded=0;" vertex="1" parent="1">
          <mxGeometry x="-310" y="195" width="100" height="30" as="geometry" />
        </mxCell>
        <mxCell id="1xZOdAHlnj8blG5HcDeI-6" value="&lt;font face=&quot;Verdana&quot; style=&quot;font-size: 24px;&quot;&gt;nome&lt;/font&gt;" style="text;html=1;align=center;verticalAlign=middle;whiteSpace=wrap;rounded=0;" vertex="1" parent="1">
          <mxGeometry x="-220" y="195" width="100" height="30" as="geometry" />
        </mxCell>
        <mxCell id="1xZOdAHlnj8blG5HcDeI-7" value="&lt;font face=&quot;Verdana&quot; style=&quot;font-size: 24px;&quot;&gt;d&lt;/font&gt;&lt;span style=&quot;font-size: 24px; font-family: Verdana; background-color: initial;&quot;&gt;ata_nasc&lt;/span&gt;" style="text;html=1;align=center;verticalAlign=middle;whiteSpace=wrap;rounded=0;" vertex="1" parent="1">
          <mxGeometry x="-100" y="195" width="100" height="30" as="geometry" />
        </mxCell>
        <mxCell id="1xZOdAHlnj8blG5HcDeI-8" value="&lt;font face=&quot;Verdana&quot; style=&quot;font-size: 24px;&quot;&gt;status_plano&lt;/font&gt;" style="text;html=1;align=center;verticalAlign=middle;whiteSpace=wrap;rounded=0;" vertex="1" parent="1">
          <mxGeometry x="60" y="195" width="100" height="30" as="geometry" />
        </mxCell>
        <mxCell id="1xZOdAHlnj8blG5HcDeI-9" value="&lt;font face=&quot;Verdana&quot; style=&quot;font-size: 24px;&quot;&gt;histórico&lt;/font&gt;" style="text;html=1;align=center;verticalAlign=middle;whiteSpace=wrap;rounded=0;" vertex="1" parent="1">
          <mxGeometry x="210" y="195" width="100" height="30" as="geometry" />
        </mxCell>
        <mxCell id="1xZOdAHlnj8blG5HcDeI-19" value="" style="line;strokeWidth=2;direction=south;html=1;" vertex="1" parent="1">
          <mxGeometry x="-220" y="180" width="10" height="60" as="geometry" />
        </mxCell>
        <mxCell id="1xZOdAHlnj8blG5HcDeI-20" value="" style="line;strokeWidth=2;direction=south;html=1;" vertex="1" parent="1">
          <mxGeometry x="-130" y="180" width="10" height="60" as="geometry" />
        </mxCell>
        <mxCell id="1xZOdAHlnj8blG5HcDeI-25" value="" style="line;strokeWidth=2;direction=south;html=1;" vertex="1" parent="1">
          <mxGeometry x="20" y="180" width="10" height="60" as="geometry" />
        </mxCell>
        <mxCell id="1xZOdAHlnj8blG5HcDeI-26" value="" style="line;strokeWidth=2;direction=south;html=1;" vertex="1" parent="1">
          <mxGeometry x="190" y="180" width="10" height="60" as="geometry" />
        </mxCell>
        <mxCell id="1xZOdAHlnj8blG5HcDeI-29" value="" style="rounded=0;whiteSpace=wrap;html=1;" vertex="1" parent="1">
          <mxGeometry x="810" y="180" width="630" height="60" as="geometry" />
        </mxCell>
        <mxCell id="1xZOdAHlnj8blG5HcDeI-30" value="&lt;font face=&quot;Verdana&quot; style=&quot;font-size: 24px;&quot;&gt;Curso&lt;/font&gt;" style="text;html=1;align=center;verticalAlign=middle;whiteSpace=wrap;rounded=0;" vertex="1" parent="1">
          <mxGeometry x="820" y="150" width="60" height="30" as="geometry" />
        </mxCell>
        <mxCell id="1xZOdAHlnj8blG5HcDeI-144" style="edgeStyle=orthogonalEdgeStyle;rounded=0;orthogonalLoop=1;jettySize=auto;html=1;exitX=0.75;exitY=0;exitDx=0;exitDy=0;entryX=0.75;entryY=1;entryDx=0;entryDy=0;" edge="1" parent="1" source="1xZOdAHlnj8blG5HcDeI-31" target="1xZOdAHlnj8blG5HcDeI-132">
          <mxGeometry relative="1" as="geometry" />
        </mxCell>
        <mxCell id="1xZOdAHlnj8blG5HcDeI-31" value="&lt;font face=&quot;Verdana&quot; style=&quot;font-size: 24px;&quot;&gt;&lt;u&gt;nome&lt;/u&gt;&lt;/font&gt;" style="text;html=1;align=center;verticalAlign=middle;whiteSpace=wrap;rounded=0;" vertex="1" parent="1">
          <mxGeometry x="810" y="195" width="100" height="30" as="geometry" />
        </mxCell>
        <mxCell id="1xZOdAHlnj8blG5HcDeI-32" value="&lt;font face=&quot;Verdana&quot; style=&quot;font-size: 24px;&quot;&gt;descrição&lt;/font&gt;" style="text;html=1;align=center;verticalAlign=middle;whiteSpace=wrap;rounded=0;" vertex="1" parent="1">
          <mxGeometry x="920" y="195" width="100" height="30" as="geometry" />
        </mxCell>
        <mxCell id="1xZOdAHlnj8blG5HcDeI-33" value="&lt;font face=&quot;Verdana&quot; style=&quot;font-size: 24px;&quot;&gt;duração&lt;/font&gt;" style="text;html=1;align=center;verticalAlign=middle;whiteSpace=wrap;rounded=0;" vertex="1" parent="1">
          <mxGeometry x="1040" y="195" width="100" height="30" as="geometry" />
        </mxCell>
        <mxCell id="1xZOdAHlnj8blG5HcDeI-34" value="&lt;font face=&quot;Verdana&quot; style=&quot;font-size: 24px;&quot;&gt;nível&lt;/font&gt;" style="text;html=1;align=center;verticalAlign=middle;whiteSpace=wrap;rounded=0;" vertex="1" parent="1">
          <mxGeometry x="1130" y="195" width="100" height="30" as="geometry" />
        </mxCell>
        <mxCell id="1xZOdAHlnj8blG5HcDeI-35" value="&lt;font face=&quot;Verdana&quot; style=&quot;font-size: 24px;&quot;&gt;data_lançamento&lt;/font&gt;" style="text;html=1;align=center;verticalAlign=middle;whiteSpace=wrap;rounded=0;" vertex="1" parent="1">
          <mxGeometry x="1280" y="195" width="100" height="30" as="geometry" />
        </mxCell>
        <mxCell id="1xZOdAHlnj8blG5HcDeI-36" value="" style="line;strokeWidth=2;direction=south;html=1;" vertex="1" parent="1">
          <mxGeometry x="900" y="180" width="10" height="60" as="geometry" />
        </mxCell>
        <mxCell id="1xZOdAHlnj8blG5HcDeI-37" value="" style="line;strokeWidth=2;direction=south;html=1;" vertex="1" parent="1">
          <mxGeometry x="1030" y="180" width="10" height="60" as="geometry" />
        </mxCell>
        <mxCell id="1xZOdAHlnj8blG5HcDeI-38" value="" style="line;strokeWidth=2;direction=south;html=1;" vertex="1" parent="1">
          <mxGeometry x="1140" y="180" width="10" height="60" as="geometry" />
        </mxCell>
        <mxCell id="1xZOdAHlnj8blG5HcDeI-39" value="" style="line;strokeWidth=2;direction=south;html=1;" vertex="1" parent="1">
          <mxGeometry x="1210" y="180" width="10" height="60" as="geometry" />
        </mxCell>
        <mxCell id="1xZOdAHlnj8blG5HcDeI-42" value="" style="rounded=0;whiteSpace=wrap;html=1;" vertex="1" parent="1">
          <mxGeometry x="1600" y="180" width="850" height="60" as="geometry" />
        </mxCell>
        <mxCell id="1xZOdAHlnj8blG5HcDeI-43" value="&lt;font face=&quot;Verdana&quot; style=&quot;font-size: 24px;&quot;&gt;Professor&lt;/font&gt;" style="text;html=1;align=center;verticalAlign=middle;whiteSpace=wrap;rounded=0;" vertex="1" parent="1">
          <mxGeometry x="1630" y="150" width="60" height="30" as="geometry" />
        </mxCell>
        <mxCell id="1xZOdAHlnj8blG5HcDeI-140" style="edgeStyle=orthogonalEdgeStyle;rounded=0;orthogonalLoop=1;jettySize=auto;html=1;exitX=0.5;exitY=0;exitDx=0;exitDy=0;entryX=0.25;entryY=1;entryDx=0;entryDy=0;" edge="1" parent="1" source="1xZOdAHlnj8blG5HcDeI-45" target="1xZOdAHlnj8blG5HcDeI-132">
          <mxGeometry relative="1" as="geometry" />
        </mxCell>
        <mxCell id="1xZOdAHlnj8blG5HcDeI-45" value="&lt;font face=&quot;Verdana&quot; style=&quot;font-size: 24px;&quot;&gt;&lt;u&gt;nome&lt;/u&gt;&lt;/font&gt;" style="text;html=1;align=center;verticalAlign=middle;whiteSpace=wrap;rounded=0;" vertex="1" parent="1">
          <mxGeometry x="1600" y="195" width="100" height="30" as="geometry" />
        </mxCell>
        <mxCell id="1xZOdAHlnj8blG5HcDeI-47" value="&lt;font face=&quot;Verdana&quot; style=&quot;font-size: 24px;&quot;&gt;e-mail&lt;/font&gt;" style="text;html=1;align=center;verticalAlign=middle;whiteSpace=wrap;rounded=0;" vertex="1" parent="1">
          <mxGeometry x="1690" y="195" width="100" height="30" as="geometry" />
        </mxCell>
        <mxCell id="1xZOdAHlnj8blG5HcDeI-48" value="&lt;font face=&quot;Verdana&quot; style=&quot;font-size: 24px;&quot;&gt;especialização&lt;/font&gt;" style="text;html=1;align=center;verticalAlign=middle;whiteSpace=wrap;rounded=0;" vertex="1" parent="1">
          <mxGeometry x="1830" y="195" width="100" height="30" as="geometry" />
        </mxCell>
        <mxCell id="1xZOdAHlnj8blG5HcDeI-49" value="&lt;font face=&quot;Verdana&quot; style=&quot;font-size: 24px;&quot;&gt;cursos_ministrados&lt;/font&gt;" style="text;html=1;align=center;verticalAlign=middle;whiteSpace=wrap;rounded=0;" vertex="1" parent="1">
          <mxGeometry x="2050" y="195" width="100" height="30" as="geometry" />
        </mxCell>
        <mxCell id="1xZOdAHlnj8blG5HcDeI-50" value="&lt;font face=&quot;Verdana&quot; style=&quot;font-size: 24px;&quot;&gt;feedback_alunos&lt;/font&gt;" style="text;html=1;align=center;verticalAlign=middle;whiteSpace=wrap;rounded=0;" vertex="1" parent="1">
          <mxGeometry x="2290" y="195" width="100" height="30" as="geometry" />
        </mxCell>
        <mxCell id="1xZOdAHlnj8blG5HcDeI-51" value="" style="line;strokeWidth=2;direction=south;html=1;" vertex="1" parent="1">
          <mxGeometry x="1690" y="180" width="10" height="60" as="geometry" />
        </mxCell>
        <mxCell id="1xZOdAHlnj8blG5HcDeI-52" value="" style="line;strokeWidth=2;direction=south;html=1;" vertex="1" parent="1">
          <mxGeometry x="1780" y="180" width="10" height="60" as="geometry" />
        </mxCell>
        <mxCell id="1xZOdAHlnj8blG5HcDeI-53" value="" style="line;strokeWidth=2;direction=south;html=1;" vertex="1" parent="1">
          <mxGeometry x="1970" y="180" width="10" height="60" as="geometry" />
        </mxCell>
        <mxCell id="1xZOdAHlnj8blG5HcDeI-54" value="" style="line;strokeWidth=2;direction=south;html=1;" vertex="1" parent="1">
          <mxGeometry x="2220" y="180" width="10" height="60" as="geometry" />
        </mxCell>
        <mxCell id="1xZOdAHlnj8blG5HcDeI-55" value="" style="rounded=0;whiteSpace=wrap;html=1;" vertex="1" parent="1">
          <mxGeometry x="810" y="450" width="620" height="60" as="geometry" />
        </mxCell>
        <mxCell id="1xZOdAHlnj8blG5HcDeI-56" value="&lt;font face=&quot;Verdana&quot; style=&quot;font-size: 24px;&quot;&gt;Módulo&lt;/font&gt;" style="text;html=1;align=center;verticalAlign=middle;whiteSpace=wrap;rounded=0;" vertex="1" parent="1">
          <mxGeometry x="827" y="420" width="60" height="30" as="geometry" />
        </mxCell>
        <mxCell id="1xZOdAHlnj8blG5HcDeI-57" value="&lt;font face=&quot;Verdana&quot; style=&quot;font-size: 24px;&quot;&gt;nome_curso&lt;/font&gt;" style="text;html=1;align=center;verticalAlign=middle;whiteSpace=wrap;rounded=0;" vertex="1" parent="1">
          <mxGeometry x="850" y="465" width="100" height="30" as="geometry" />
        </mxCell>
        <mxCell id="1xZOdAHlnj8blG5HcDeI-58" value="&lt;font face=&quot;Verdana&quot; style=&quot;font-size: 24px;&quot;&gt;nome&lt;/font&gt;" style="text;html=1;align=center;verticalAlign=middle;whiteSpace=wrap;rounded=0;" vertex="1" parent="1">
          <mxGeometry x="978" y="465" width="100" height="30" as="geometry" />
        </mxCell>
        <mxCell id="1xZOdAHlnj8blG5HcDeI-59" value="&lt;font face=&quot;Verdana&quot; style=&quot;font-size: 24px;&quot;&gt;descrição&lt;/font&gt;" style="text;html=1;align=center;verticalAlign=middle;whiteSpace=wrap;rounded=0;" vertex="1" parent="1">
          <mxGeometry x="1090" y="465" width="100" height="30" as="geometry" />
        </mxCell>
        <mxCell id="1xZOdAHlnj8blG5HcDeI-60" value="&lt;font face=&quot;Verdana&quot; style=&quot;font-size: 24px;&quot;&gt;ordem_no_curso&lt;/font&gt;" style="text;html=1;align=center;verticalAlign=middle;whiteSpace=wrap;rounded=0;" vertex="1" parent="1">
          <mxGeometry x="1270" y="465" width="100" height="30" as="geometry" />
        </mxCell>
        <mxCell id="1xZOdAHlnj8blG5HcDeI-61" value="" style="line;strokeWidth=2;direction=south;html=1;" vertex="1" parent="1">
          <mxGeometry x="980" y="450" width="10" height="60" as="geometry" />
        </mxCell>
        <mxCell id="1xZOdAHlnj8blG5HcDeI-62" value="" style="line;strokeWidth=2;direction=south;html=1;" vertex="1" parent="1">
          <mxGeometry x="1070" y="450" width="10" height="60" as="geometry" />
        </mxCell>
        <mxCell id="1xZOdAHlnj8blG5HcDeI-63" value="" style="line;strokeWidth=2;direction=south;html=1;" vertex="1" parent="1">
          <mxGeometry x="1200" y="450" width="10" height="60" as="geometry" />
        </mxCell>
        <mxCell id="1xZOdAHlnj8blG5HcDeI-66" value="" style="rounded=0;whiteSpace=wrap;html=1;" vertex="1" parent="1">
          <mxGeometry x="810" y="640" width="840" height="60" as="geometry" />
        </mxCell>
        <mxCell id="1xZOdAHlnj8blG5HcDeI-67" value="&lt;font face=&quot;Verdana&quot; style=&quot;font-size: 24px;&quot;&gt;Aula&lt;/font&gt;" style="text;html=1;align=center;verticalAlign=middle;whiteSpace=wrap;rounded=0;" vertex="1" parent="1">
          <mxGeometry x="810" y="610" width="60" height="30" as="geometry" />
        </mxCell>
        <mxCell id="1xZOdAHlnj8blG5HcDeI-68" value="&lt;font face=&quot;Verdana&quot; style=&quot;font-size: 24px;&quot;&gt;nome_módulo&lt;/font&gt;" style="text;html=1;align=center;verticalAlign=middle;whiteSpace=wrap;rounded=0;" vertex="1" parent="1">
          <mxGeometry x="855" y="655" width="100" height="30" as="geometry" />
        </mxCell>
        <mxCell id="1xZOdAHlnj8blG5HcDeI-69" value="&lt;font face=&quot;Verdana&quot; style=&quot;font-size: 24px;&quot;&gt;nome&lt;/font&gt;" style="text;html=1;align=center;verticalAlign=middle;whiteSpace=wrap;rounded=0;" vertex="1" parent="1">
          <mxGeometry x="1000" y="655" width="100" height="30" as="geometry" />
        </mxCell>
        <mxCell id="1xZOdAHlnj8blG5HcDeI-70" value="&lt;font face=&quot;Verdana&quot; style=&quot;font-size: 24px;&quot;&gt;descrição&lt;/font&gt;" style="text;html=1;align=center;verticalAlign=middle;whiteSpace=wrap;rounded=0;" vertex="1" parent="1">
          <mxGeometry x="1110" y="655" width="100" height="30" as="geometry" />
        </mxCell>
        <mxCell id="1xZOdAHlnj8blG5HcDeI-71" value="&lt;font face=&quot;Verdana&quot; style=&quot;font-size: 24px;&quot;&gt;duração&lt;/font&gt;" style="text;html=1;align=center;verticalAlign=middle;whiteSpace=wrap;rounded=0;" vertex="1" parent="1">
          <mxGeometry x="1230" y="655" width="100" height="30" as="geometry" />
        </mxCell>
        <mxCell id="1xZOdAHlnj8blG5HcDeI-72" value="&lt;font face=&quot;Verdana&quot; style=&quot;font-size: 24px;&quot;&gt;tipo&lt;/font&gt;" style="text;html=1;align=center;verticalAlign=middle;whiteSpace=wrap;rounded=0;" vertex="1" parent="1">
          <mxGeometry x="1320" y="655" width="100" height="30" as="geometry" />
        </mxCell>
        <mxCell id="1xZOdAHlnj8blG5HcDeI-73" value="&lt;font face=&quot;Verdana&quot; style=&quot;font-size: 24px;&quot;&gt;ordem_no_módulo&lt;/font&gt;" style="text;html=1;align=center;verticalAlign=middle;whiteSpace=wrap;rounded=0;" vertex="1" parent="1">
          <mxGeometry x="1480" y="655" width="100" height="30" as="geometry" />
        </mxCell>
        <mxCell id="1xZOdAHlnj8blG5HcDeI-74" value="" style="line;strokeWidth=2;direction=south;html=1;" vertex="1" parent="1">
          <mxGeometry x="1000" y="640" width="10" height="60" as="geometry" />
        </mxCell>
        <mxCell id="1xZOdAHlnj8blG5HcDeI-75" value="" style="line;strokeWidth=2;direction=south;html=1;" vertex="1" parent="1">
          <mxGeometry x="1220" y="640" width="10" height="60" as="geometry" />
        </mxCell>
        <mxCell id="1xZOdAHlnj8blG5HcDeI-76" value="" style="line;strokeWidth=2;direction=south;html=1;" vertex="1" parent="1">
          <mxGeometry x="1330" y="640" width="10" height="60" as="geometry" />
        </mxCell>
        <mxCell id="1xZOdAHlnj8blG5HcDeI-77" value="" style="line;strokeWidth=2;direction=south;html=1;" vertex="1" parent="1">
          <mxGeometry x="1085" y="640" width="10" height="60" as="geometry" />
        </mxCell>
        <mxCell id="1xZOdAHlnj8blG5HcDeI-81" value="" style="line;strokeWidth=2;direction=south;html=1;" vertex="1" parent="1">
          <mxGeometry x="1400" y="640" width="10" height="60" as="geometry" />
        </mxCell>
        <mxCell id="1xZOdAHlnj8blG5HcDeI-82" value="" style="rounded=0;whiteSpace=wrap;html=1;" vertex="1" parent="1">
          <mxGeometry x="-310" y="450" width="1020" height="60" as="geometry" />
        </mxCell>
        <mxCell id="1xZOdAHlnj8blG5HcDeI-83" value="&lt;font face=&quot;Verdana&quot; style=&quot;font-size: 24px;&quot;&gt;Vaga&lt;/font&gt;" style="text;html=1;align=center;verticalAlign=middle;whiteSpace=wrap;rounded=0;" vertex="1" parent="1">
          <mxGeometry x="-300" y="420" width="60" height="30" as="geometry" />
        </mxCell>
        <mxCell id="1xZOdAHlnj8blG5HcDeI-152" style="edgeStyle=orthogonalEdgeStyle;rounded=0;orthogonalLoop=1;jettySize=auto;html=1;exitX=0.25;exitY=0;exitDx=0;exitDy=0;entryX=0.75;entryY=1;entryDx=0;entryDy=0;" edge="1" parent="1" source="1xZOdAHlnj8blG5HcDeI-84" target="1xZOdAHlnj8blG5HcDeI-146">
          <mxGeometry relative="1" as="geometry" />
        </mxCell>
        <mxCell id="1xZOdAHlnj8blG5HcDeI-84" value="&lt;font face=&quot;Verdana&quot; style=&quot;font-size: 24px;&quot;&gt;&lt;u&gt;id_vaga&lt;/u&gt;&lt;/font&gt;" style="text;html=1;align=center;verticalAlign=middle;whiteSpace=wrap;rounded=0;" vertex="1" parent="1">
          <mxGeometry x="-300" y="465" width="100" height="30" as="geometry" />
        </mxCell>
        <mxCell id="1xZOdAHlnj8blG5HcDeI-85" value="&lt;font face=&quot;Verdana&quot; style=&quot;font-size: 24px;&quot;&gt;descrição&lt;/font&gt;" style="text;html=1;align=center;verticalAlign=middle;whiteSpace=wrap;rounded=0;" vertex="1" parent="1">
          <mxGeometry x="-40" y="465" width="100" height="30" as="geometry" />
        </mxCell>
        <mxCell id="1xZOdAHlnj8blG5HcDeI-90" value="&lt;font face=&quot;Verdana&quot; style=&quot;font-size: 24px;&quot;&gt;habilidades_necessárias&lt;/font&gt;" style="text;html=1;align=center;verticalAlign=middle;whiteSpace=wrap;rounded=0;" vertex="1" parent="1">
          <mxGeometry x="180" y="465" width="100" height="30" as="geometry" />
        </mxCell>
        <mxCell id="1xZOdAHlnj8blG5HcDeI-95" value="&lt;font face=&quot;Verdana&quot;&gt;&lt;span style=&quot;font-size: 24px;&quot;&gt;certificações_necessárias&lt;/span&gt;&lt;/font&gt;" style="text;html=1;align=center;verticalAlign=middle;whiteSpace=wrap;rounded=0;" vertex="1" parent="1">
          <mxGeometry x="500" y="465" width="100" height="30" as="geometry" />
        </mxCell>
        <mxCell id="1xZOdAHlnj8blG5HcDeI-96" value="" style="line;strokeWidth=2;direction=south;html=1;" vertex="1" parent="1">
          <mxGeometry x="-60" y="450" width="10" height="60" as="geometry" />
        </mxCell>
        <mxCell id="1xZOdAHlnj8blG5HcDeI-97" value="" style="line;strokeWidth=2;direction=south;html=1;" vertex="1" parent="1">
          <mxGeometry x="70" y="450" width="10" height="60" as="geometry" />
        </mxCell>
        <mxCell id="1xZOdAHlnj8blG5HcDeI-98" value="" style="line;strokeWidth=2;direction=south;html=1;" vertex="1" parent="1">
          <mxGeometry x="380" y="450" width="10" height="60" as="geometry" />
        </mxCell>
        <mxCell id="1xZOdAHlnj8blG5HcDeI-104" value="" style="rounded=0;whiteSpace=wrap;html=1;" vertex="1" parent="1">
          <mxGeometry x="-310" y="640" width="330" height="60" as="geometry" />
        </mxCell>
        <mxCell id="1xZOdAHlnj8blG5HcDeI-105" value="&lt;font face=&quot;Verdana&quot; style=&quot;font-size: 24px;&quot;&gt;Empresa&lt;/font&gt;" style="text;html=1;align=center;verticalAlign=middle;whiteSpace=wrap;rounded=0;" vertex="1" parent="1">
          <mxGeometry x="-280" y="600" width="60" height="30" as="geometry" />
        </mxCell>
        <mxCell id="1xZOdAHlnj8blG5HcDeI-106" value="&lt;font face=&quot;Verdana&quot; style=&quot;font-size: 24px;&quot;&gt;&lt;u&gt;nome&lt;/u&gt;&lt;/font&gt;" style="text;html=1;align=center;verticalAlign=middle;whiteSpace=wrap;rounded=0;" vertex="1" parent="1">
          <mxGeometry x="-310" y="655" width="100" height="30" as="geometry" />
        </mxCell>
        <mxCell id="1xZOdAHlnj8blG5HcDeI-107" value="&lt;font face=&quot;Verdana&quot; style=&quot;font-size: 24px;&quot;&gt;localização&lt;/font&gt;" style="text;html=1;align=center;verticalAlign=middle;whiteSpace=wrap;rounded=0;" vertex="1" parent="1">
          <mxGeometry x="-190" y="655" width="100" height="30" as="geometry" />
        </mxCell>
        <mxCell id="1xZOdAHlnj8blG5HcDeI-108" value="&lt;font face=&quot;Verdana&quot; style=&quot;font-size: 24px;&quot;&gt;setor&lt;/font&gt;" style="text;html=1;align=center;verticalAlign=middle;whiteSpace=wrap;rounded=0;" vertex="1" parent="1">
          <mxGeometry x="-70" y="655" width="100" height="30" as="geometry" />
        </mxCell>
        <mxCell id="1xZOdAHlnj8blG5HcDeI-109" value="" style="line;strokeWidth=2;direction=south;html=1;" vertex="1" parent="1">
          <mxGeometry x="-220" y="640" width="10" height="60" as="geometry" />
        </mxCell>
        <mxCell id="1xZOdAHlnj8blG5HcDeI-112" value="" style="line;strokeWidth=2;direction=south;html=1;" vertex="1" parent="1">
          <mxGeometry x="-70" y="640" width="10" height="60" as="geometry" />
        </mxCell>
        <mxCell id="1xZOdAHlnj8blG5HcDeI-114" value="&lt;font face=&quot;Verdana&quot; style=&quot;font-size: 24px;&quot;&gt;empresa&lt;/font&gt;" style="text;html=1;align=center;verticalAlign=middle;whiteSpace=wrap;rounded=0;" vertex="1" parent="1">
          <mxGeometry x="-170" y="465" width="100" height="30" as="geometry" />
        </mxCell>
        <mxCell id="1xZOdAHlnj8blG5HcDeI-115" value="" style="line;strokeWidth=2;direction=south;html=1;" vertex="1" parent="1">
          <mxGeometry x="-190" y="450" width="10" height="60" as="geometry" />
        </mxCell>
        <mxCell id="1xZOdAHlnj8blG5HcDeI-119" style="edgeStyle=orthogonalEdgeStyle;rounded=0;orthogonalLoop=1;jettySize=auto;html=1;entryX=0.085;entryY=1.047;entryDx=0;entryDy=0;entryPerimeter=0;" edge="1" parent="1" source="1xZOdAHlnj8blG5HcDeI-57" target="1xZOdAHlnj8blG5HcDeI-29">
          <mxGeometry relative="1" as="geometry" />
        </mxCell>
        <mxCell id="1xZOdAHlnj8blG5HcDeI-120" style="edgeStyle=orthogonalEdgeStyle;rounded=0;orthogonalLoop=1;jettySize=auto;html=1;exitX=0.5;exitY=0;exitDx=0;exitDy=0;entryX=0.356;entryY=1.037;entryDx=0;entryDy=0;entryPerimeter=0;" edge="1" parent="1" source="1xZOdAHlnj8blG5HcDeI-68" target="1xZOdAHlnj8blG5HcDeI-55">
          <mxGeometry relative="1" as="geometry" />
        </mxCell>
        <mxCell id="1xZOdAHlnj8blG5HcDeI-121" value="" style="rounded=0;whiteSpace=wrap;html=1;" vertex="1" parent="1">
          <mxGeometry x="240" y="-80" width="650" height="60" as="geometry" />
        </mxCell>
        <mxCell id="1xZOdAHlnj8blG5HcDeI-122" value="&lt;font face=&quot;Verdana&quot; style=&quot;font-size: 24px;&quot;&gt;Estudam&lt;/font&gt;" style="text;html=1;align=center;verticalAlign=middle;whiteSpace=wrap;rounded=0;" vertex="1" parent="1">
          <mxGeometry x="270" y="-110" width="60" height="30" as="geometry" />
        </mxCell>
        <mxCell id="1xZOdAHlnj8blG5HcDeI-123" value="&lt;font face=&quot;Verdana&quot; style=&quot;font-size: 24px;&quot;&gt;e-mail_aluno&lt;/font&gt;" style="text;html=1;align=center;verticalAlign=middle;whiteSpace=wrap;rounded=0;" vertex="1" parent="1">
          <mxGeometry x="240" y="-65" width="180" height="30" as="geometry" />
        </mxCell>
        <mxCell id="1xZOdAHlnj8blG5HcDeI-124" value="&lt;font face=&quot;Verdana&quot; style=&quot;font-size: 24px;&quot;&gt;nome_curso&lt;/font&gt;" style="text;html=1;align=center;verticalAlign=middle;whiteSpace=wrap;rounded=0;" vertex="1" parent="1">
          <mxGeometry x="414" y="-65" width="174" height="30" as="geometry" />
        </mxCell>
        <mxCell id="1xZOdAHlnj8blG5HcDeI-125" value="&lt;font face=&quot;Verdana&quot; style=&quot;font-size: 24px;&quot;&gt;data_conclusão&lt;/font&gt;" style="text;html=1;align=center;verticalAlign=middle;whiteSpace=wrap;rounded=0;" vertex="1" parent="1">
          <mxGeometry x="610" y="-65" width="174" height="30" as="geometry" />
        </mxCell>
        <mxCell id="1xZOdAHlnj8blG5HcDeI-126" value="&lt;font face=&quot;Verdana&quot; style=&quot;font-size: 24px;&quot;&gt;nota&lt;/font&gt;" style="text;html=1;align=center;verticalAlign=middle;whiteSpace=wrap;rounded=0;" vertex="1" parent="1">
          <mxGeometry x="763" y="-65" width="174" height="30" as="geometry" />
        </mxCell>
        <mxCell id="1xZOdAHlnj8blG5HcDeI-127" value="" style="line;strokeWidth=2;direction=south;html=1;" vertex="1" parent="1">
          <mxGeometry x="414" y="-80" width="10" height="60" as="geometry" />
        </mxCell>
        <mxCell id="1xZOdAHlnj8blG5HcDeI-128" value="" style="line;strokeWidth=2;direction=south;html=1;" vertex="1" parent="1">
          <mxGeometry x="584" y="-80" width="10" height="60" as="geometry" />
        </mxCell>
        <mxCell id="1xZOdAHlnj8blG5HcDeI-129" value="" style="line;strokeWidth=2;direction=south;html=1;" vertex="1" parent="1">
          <mxGeometry x="800" y="-80" width="10" height="60" as="geometry" />
        </mxCell>
        <mxCell id="1xZOdAHlnj8blG5HcDeI-130" style="edgeStyle=orthogonalEdgeStyle;rounded=0;orthogonalLoop=1;jettySize=auto;html=1;exitX=0.5;exitY=0;exitDx=0;exitDy=0;entryX=0.411;entryY=1.034;entryDx=0;entryDy=0;entryPerimeter=0;" edge="1" parent="1" source="1xZOdAHlnj8blG5HcDeI-31" target="1xZOdAHlnj8blG5HcDeI-121">
          <mxGeometry relative="1" as="geometry" />
        </mxCell>
        <mxCell id="1xZOdAHlnj8blG5HcDeI-131" style="edgeStyle=orthogonalEdgeStyle;rounded=0;orthogonalLoop=1;jettySize=auto;html=1;exitX=0.5;exitY=0;exitDx=0;exitDy=0;entryX=0.14;entryY=1.074;entryDx=0;entryDy=0;entryPerimeter=0;" edge="1" parent="1" source="1xZOdAHlnj8blG5HcDeI-5" target="1xZOdAHlnj8blG5HcDeI-121">
          <mxGeometry relative="1" as="geometry" />
        </mxCell>
        <mxCell id="1xZOdAHlnj8blG5HcDeI-132" value="" style="rounded=0;whiteSpace=wrap;html=1;" vertex="1" parent="1">
          <mxGeometry x="1280" y="-80" width="400" height="60" as="geometry" />
        </mxCell>
        <mxCell id="1xZOdAHlnj8blG5HcDeI-133" value="&lt;font face=&quot;Verdana&quot; style=&quot;font-size: 24px;&quot;&gt;Ministram&lt;/font&gt;" style="text;html=1;align=center;verticalAlign=middle;whiteSpace=wrap;rounded=0;" vertex="1" parent="1">
          <mxGeometry x="1321" y="-110" width="60" height="30" as="geometry" />
        </mxCell>
        <mxCell id="1xZOdAHlnj8blG5HcDeI-134" value="&lt;font face=&quot;Verdana&quot; style=&quot;font-size: 24px;&quot;&gt;nome_professor&lt;/font&gt;" style="text;html=1;align=center;verticalAlign=middle;whiteSpace=wrap;rounded=0;" vertex="1" parent="1">
          <mxGeometry x="1340" y="-65" width="100" height="30" as="geometry" />
        </mxCell>
        <mxCell id="1xZOdAHlnj8blG5HcDeI-135" value="&lt;font face=&quot;Verdana&quot; style=&quot;font-size: 24px;&quot;&gt;nome_curso&lt;/font&gt;" style="text;html=1;align=center;verticalAlign=middle;whiteSpace=wrap;rounded=0;" vertex="1" parent="1">
          <mxGeometry x="1550" y="-65" width="100" height="30" as="geometry" />
        </mxCell>
        <mxCell id="1xZOdAHlnj8blG5HcDeI-136" value="" style="line;strokeWidth=2;direction=south;html=1;" vertex="1" parent="1">
          <mxGeometry x="1500" y="-80" width="10" height="60" as="geometry" />
        </mxCell>
        <mxCell id="1xZOdAHlnj8blG5HcDeI-146" value="" style="rounded=0;whiteSpace=wrap;html=1;" vertex="1" parent="1">
          <mxGeometry x="-740" y="300" width="360" height="60" as="geometry" />
        </mxCell>
        <mxCell id="1xZOdAHlnj8blG5HcDeI-147" value="&lt;font face=&quot;Verdana&quot;&gt;&lt;span style=&quot;font-size: 24px;&quot;&gt;Se_Qualificam&lt;/span&gt;&lt;/font&gt;" style="text;html=1;align=center;verticalAlign=middle;whiteSpace=wrap;rounded=0;" vertex="1" parent="1">
          <mxGeometry x="-699.5" y="270" width="122" height="30" as="geometry" />
        </mxCell>
        <mxCell id="1xZOdAHlnj8blG5HcDeI-148" value="&lt;font face=&quot;Verdana&quot; style=&quot;font-size: 24px;&quot;&gt;e-mail_aluno&lt;/font&gt;" style="text;html=1;align=center;verticalAlign=middle;whiteSpace=wrap;rounded=0;" vertex="1" parent="1">
          <mxGeometry x="-730" y="315" width="183" height="30" as="geometry" />
        </mxCell>
        <mxCell id="1xZOdAHlnj8blG5HcDeI-149" value="&lt;font face=&quot;Verdana&quot;&gt;&lt;span style=&quot;font-size: 24px;&quot;&gt;id_vaga&lt;/span&gt;&lt;/font&gt;" style="text;html=1;align=center;verticalAlign=middle;whiteSpace=wrap;rounded=0;" vertex="1" parent="1">
          <mxGeometry x="-500" y="315" width="100" height="30" as="geometry" />
        </mxCell>
        <mxCell id="1xZOdAHlnj8blG5HcDeI-150" value="" style="line;strokeWidth=2;direction=south;html=1;" vertex="1" parent="1">
          <mxGeometry x="-533" y="300" width="10" height="60" as="geometry" />
        </mxCell>
        <mxCell id="1xZOdAHlnj8blG5HcDeI-153" style="edgeStyle=orthogonalEdgeStyle;rounded=0;orthogonalLoop=1;jettySize=auto;html=1;exitX=0.5;exitY=0;exitDx=0;exitDy=0;entryX=0.186;entryY=1.062;entryDx=0;entryDy=0;entryPerimeter=0;" edge="1" parent="1" source="1xZOdAHlnj8blG5HcDeI-106" target="1xZOdAHlnj8blG5HcDeI-82">
          <mxGeometry relative="1" as="geometry" />
        </mxCell>
      </root>
    </mxGraphModel>
  </diagram>
</mxfile>
